<?xml version="1.0" encoding="UTF-8" standalone="no"?>
<svg
   xmlns:dc="http://purl.org/dc/elements/1.1/"
   xmlns:cc="http://creativecommons.org/ns#"
   xmlns:rdf="http://www.w3.org/1999/02/22-rdf-syntax-ns#"
   xmlns:svg="http://www.w3.org/2000/svg"
   xmlns="http://www.w3.org/2000/svg"
   xmlns:sodipodi="http://sodipodi.sourceforge.net/DTD/sodipodi-0.dtd"
   xmlns:inkscape="http://www.inkscape.org/namespaces/inkscape"
   width="210mm"
   height="297mm"
   viewBox="0 0 210 297"
   version="1.1"
   id="svg982"
   inkscape:version="1.0.2 (e86c870879, 2021-01-15, custom)"
   sodipodi:docname="logo.svg">
  <defs
     id="defs976" />
  <sodipodi:namedview
     id="base"
     pagecolor="#ffffff"
     bordercolor="#666666"
     borderopacity="1.0"
     inkscape:pageopacity="0.0"
     inkscape:pageshadow="2"
     inkscape:zoom="0.7"
     inkscape:cx="-66.626727"
     inkscape:cy="565.90887"
     inkscape:document-units="mm"
     inkscape:current-layer="layer1"
     inkscape:document-rotation="0"
     showgrid="false"
     inkscape:window-width="1920"
     inkscape:window-height="1051"
     inkscape:window-x="-9"
     inkscape:window-y="-9"
     inkscape:window-maximized="1" />
  <metadata
     id="metadata979">
    <rdf:RDF>
      <cc:Work
         rdf:about="">
        <dc:format>image/svg+xml</dc:format>
        <dc:type
           rdf:resource="http://purl.org/dc/dcmitype/StillImage" />
        <dc:title></dc:title>
      </cc:Work>
    </rdf:RDF>
  </metadata>
  <g
     inkscape:label="Layer 1"
     inkscape:groupmode="layer"
     id="layer1">
    <path
       style="fill:#ffffff;fill-opacity:1;stroke:#000000;stroke-width:0;stroke-linecap:butt;stroke-linejoin:miter;stroke-miterlimit:4;stroke-dasharray:none;stroke-opacity:1"
       d="M 35.784062,200.53522 6.1940739,88.482981 c 0,0 -6.1439003,-15.731837 9.4410891,-16.521782 122.984927,-0.517964 177.281517,-20.59187 177.281517,-20.59187 22.76241,27.188361 8.79305,106.805441 -4.64571,138.604641 -8.09231,0.33709 -54.62302,1.34871 -54.62302,1.34871 l -62.884013,45.68778 c 0,0 -5.350675,3.38571 -13.914621,8.62022 25.098849,-29.32486 19.860301,-49.55066 19.860301,-49.55066 -5.39276,0.52673 -22.457925,2.10233 -40.925555,4.4552 z"
       id="path890"
       sodipodi:nodetypes="cccccccccc" />
    <g
       id="g906"
       transform="matrix(3.0614881,0,0,2.7147616,-437.43119,-282.38339)"
       style="fill:#ffffff">
      <path
         style="fill:#ffffff;stroke-width:0.133635"
         d="m 190.43084,178.25443 -0.42908,-0.69396 0.30315,-0.23546 c 1.03237,-0.80182 1.2989,-1.09123 1.70801,-1.85465 0.40944,-0.76405 0.46088,-0.98086 0.50946,-2.14737 l 0.054,-1.29752 -1.17004,0.0826 -1.17005,0.0826 0.065,-2.36138 c 0.0357,-1.29875 0.0897,-2.38616 0.12003,-2.41645 0.0303,-0.0303 0.99917,-0.0983 2.15306,-0.15104 l 2.09798,-0.096 -0.071,3.25963 c -0.0803,3.6881 -0.16583,4.31259 -0.75208,5.49393 -0.43407,0.8747 -1.82322,2.38338 -2.58073,2.80279 l -0.40862,0.22623 z"
         id="path898" />
      <path
         style="fill:#ffffff;stroke-width:0.133635"
         d="m 197.17872,178.23617 -0.48195,-0.72587 0.43015,-0.26717 c 0.70562,-0.43829 1.39648,-1.23817 1.76332,-2.04159 0.3584,-0.78493 0.57266,-2.22875 0.42063,-2.83448 -0.086,-0.34258 -0.0902,-0.34354 -1.15391,-0.26151 l -1.06761,0.0823 v -2.40492 -2.40492 l 1.42395,-0.0871 c 0.78318,-0.0479 1.74535,-0.0871 2.13816,-0.0871 h 0.7142 l -7.9e-4,2.97337 c -5.3e-4,1.63535 -0.0554,3.30412 -0.12205,3.70836 -0.30037,1.8203 -1.30033,3.44478 -2.76534,4.49242 l -0.81683,0.58411 z"
         id="path900" />
    </g>
    <g
       id="g918"
       transform="matrix(-3.0614881,0,0,-2.7147616,643.37362,544.80489)"
       style="fill:#ffffff">
      <path
         style="fill:#ffffff;stroke-width:0.133635"
         d="m 190.43084,178.25443 -0.42908,-0.69396 0.30315,-0.23546 c 1.03237,-0.80182 1.2989,-1.09123 1.70801,-1.85465 0.40944,-0.76405 0.46088,-0.98086 0.50946,-2.14737 l 0.054,-1.29752 -1.17004,0.0826 -1.17005,0.0826 0.065,-2.36138 c 0.0357,-1.29875 0.0897,-2.38616 0.12003,-2.41645 0.0303,-0.0303 0.99917,-0.0983 2.15306,-0.15104 l 2.09798,-0.096 -0.071,3.25963 c -0.0803,3.6881 -0.16583,4.31259 -0.75208,5.49393 -0.43407,0.8747 -1.82322,2.38338 -2.58073,2.80279 l -0.40862,0.22623 z"
         id="path914" />
      <path
         style="fill:#ffffff;stroke-width:0.133635"
         d="m 197.17872,178.23617 -0.48195,-0.72587 0.43015,-0.26717 c 0.70562,-0.43829 1.39648,-1.23817 1.76332,-2.04159 0.3584,-0.78493 0.57266,-2.22875 0.42063,-2.83448 -0.086,-0.34258 -0.0902,-0.34354 -1.15391,-0.26151 l -1.06761,0.0823 v -2.40492 -2.40492 l 1.42395,-0.0871 c 0.78318,-0.0479 1.74535,-0.0871 2.13816,-0.0871 h 0.7142 l -7.9e-4,2.97337 c -5.3e-4,1.63535 -0.0554,3.30412 -0.12205,3.70836 -0.30037,1.8203 -1.30033,3.44478 -2.76534,4.49242 l -0.81683,0.58411 z"
         id="path916" />
    </g>
    <rect
       style="opacity:0.997;fill:#000000;fill-opacity:1;stroke:#000000;stroke-width:0;stroke-linecap:round"
       id="rect1577"
       width="71.288132"
       height="5.0068588"
       x="43.162369"
       y="125.76585" />
    <rect
       style="opacity:0.997;fill:#000000;fill-opacity:1;stroke:#000000;stroke-width:0;stroke-linecap:round"
       id="rect1581"
       width="48.16357"
       height="5.0068598"
       x="123.27811"
       y="124.30686"
       transform="matrix(0.99995099,0.00990052,0,1,0,0)" />
  </g>
</svg>
