<?xml version="1.0" encoding="UTF-8" standalone="no"?>
<svg
   xmlns:dc="http://purl.org/dc/elements/1.1/"
   xmlns:cc="http://creativecommons.org/ns#"
   xmlns:rdf="http://www.w3.org/1999/02/22-rdf-syntax-ns#"
   xmlns:svg="http://www.w3.org/2000/svg"
   xmlns="http://www.w3.org/2000/svg"
   xmlns:sodipodi="http://sodipodi.sourceforge.net/DTD/sodipodi-0.dtd"
   xmlns:inkscape="http://www.inkscape.org/namespaces/inkscape"
   width="210mm"
   height="297mm"
   viewBox="0 0 210 297"
   version="1.1"
   id="svg982"
   inkscape:version="1.0.2 (e86c870879, 2021-01-15, custom)"
   sodipodi:docname="logo.svg">
  <defs
     id="defs976" />
  <sodipodi:namedview
     id="base"
     pagecolor="#ffffff"
     bordercolor="#666666"
     borderopacity="1.0"
     inkscape:pageopacity="0.0"
     inkscape:pageshadow="2"
     inkscape:zoom="0.7"
     inkscape:cx="-66.626727"
     inkscape:cy="851.62316"
     inkscape:document-units="mm"
     inkscape:current-layer="layer1"
     inkscape:document-rotation="0"
     showgrid="false"
     inkscape:window-width="1920"
     inkscape:window-height="1051"
     inkscape:window-x="-9"
     inkscape:window-y="-9"
     inkscape:window-maximized="1" />
  <metadata
     id="metadata979">
    <rdf:RDF>
      <cc:Work
         rdf:about="">
        <dc:format>image/svg+xml</dc:format>
        <dc:type
           rdf:resource="http://purl.org/dc/dcmitype/StillImage" />
        <dc:title></dc:title>
      </cc:Work>
    </rdf:RDF>
  </metadata>
  <g
     inkscape:label="Layer 1"
     inkscape:groupmode="layer"
     id="layer1">
    <g
       id="g1593"
       transform="matrix(2.7754554,0,0,2.7754554,-186.42282,-263.65513)">
      <g
         id="g956"
         transform="translate(-76.571753,-67.306055)">
        <path
           style="fill:#800080;fill-opacity:0.533654;stroke:#000000;stroke-width:0;stroke-linecap:butt;stroke-linejoin:miter;stroke-miterlimit:4;stroke-dasharray:none;stroke-opacity:1"
           d="m 167.85553,226.11765 -5.86372,-22.20491 c 0,0 -1.21751,-3.11751 1.8709,-3.27405 24.37139,-0.10264 35.13111,-4.0806 35.13111,-4.0806 4.51073,5.3878 1.74248,21.16517 -0.92062,27.46668 -1.60362,0.0668 -10.82441,0.26727 -10.82441,0.26727 l -12.46145,9.05375 c 0,0 -1.06032,0.67093 -2.7574,1.70823 4.97373,-5.81118 3.93563,-9.81924 3.93563,-9.81924 -1.06866,0.10438 -4.45039,0.41661 -8.11004,0.88287 z"
           id="path890"
           sodipodi:nodetypes="cccccccccc" />
        <g
           id="g906"
           transform="matrix(0.60668186,0,0,0.53797253,74.080514,130.41976)"
           style="fill:#ffffff">
          <path
             style="fill:#ffffff;stroke-width:0.133635"
             d="m 190.43084,178.25443 -0.42908,-0.69396 0.30315,-0.23546 c 1.03237,-0.80182 1.2989,-1.09123 1.70801,-1.85465 0.40944,-0.76405 0.46088,-0.98086 0.50946,-2.14737 l 0.054,-1.29752 -1.17004,0.0826 -1.17005,0.0826 0.065,-2.36138 c 0.0357,-1.29875 0.0897,-2.38616 0.12003,-2.41645 0.0303,-0.0303 0.99917,-0.0983 2.15306,-0.15104 l 2.09798,-0.096 -0.071,3.25963 c -0.0803,3.6881 -0.16583,4.31259 -0.75208,5.49393 -0.43407,0.8747 -1.82322,2.38338 -2.58073,2.80279 l -0.40862,0.22623 z"
             id="path898" />
          <path
             style="fill:#ffffff;stroke-width:0.133635"
             d="m 197.17872,178.23617 -0.48195,-0.72587 0.43015,-0.26717 c 0.70562,-0.43829 1.39648,-1.23817 1.76332,-2.04159 0.3584,-0.78493 0.57266,-2.22875 0.42063,-2.83448 -0.086,-0.34258 -0.0902,-0.34354 -1.15391,-0.26151 l -1.06761,0.0823 v -2.40492 -2.40492 l 1.42395,-0.0871 c 0.78318,-0.0479 1.74535,-0.0871 2.13816,-0.0871 h 0.7142 l -7.9e-4,2.97337 c -5.3e-4,1.63535 -0.0554,3.30412 -0.12205,3.70836 -0.30037,1.8203 -1.30033,3.44478 -2.76534,4.49242 l -0.81683,0.58411 z"
             id="path900" />
        </g>
        <g
           id="g918"
           transform="matrix(-0.60668186,0,0,-0.53797253,288.25892,294.34008)"
           style="fill:#ffffff">
          <path
             style="fill:#ffffff;stroke-width:0.133635"
             d="m 190.43084,178.25443 -0.42908,-0.69396 0.30315,-0.23546 c 1.03237,-0.80182 1.2989,-1.09123 1.70801,-1.85465 0.40944,-0.76405 0.46088,-0.98086 0.50946,-2.14737 l 0.054,-1.29752 -1.17004,0.0826 -1.17005,0.0826 0.065,-2.36138 c 0.0357,-1.29875 0.0897,-2.38616 0.12003,-2.41645 0.0303,-0.0303 0.99917,-0.0983 2.15306,-0.15104 l 2.09798,-0.096 -0.071,3.25963 c -0.0803,3.6881 -0.16583,4.31259 -0.75208,5.49393 -0.43407,0.8747 -1.82322,2.38338 -2.58073,2.80279 l -0.40862,0.22623 z"
             id="path914" />
          <path
             style="fill:#ffffff;stroke-width:0.133635"
             d="m 197.17872,178.23617 -0.48195,-0.72587 0.43015,-0.26717 c 0.70562,-0.43829 1.39648,-1.23817 1.76332,-2.04159 0.3584,-0.78493 0.57266,-2.22875 0.42063,-2.83448 -0.086,-0.34258 -0.0902,-0.34354 -1.15391,-0.26151 l -1.06761,0.0823 v -2.40492 -2.40492 l 1.42395,-0.0871 c 0.78318,-0.0479 1.74535,-0.0871 2.13816,-0.0871 h 0.7142 l -7.9e-4,2.97337 c -5.3e-4,1.63535 -0.0554,3.30412 -0.12205,3.70836 -0.30037,1.8203 -1.30033,3.44478 -2.76534,4.49242 l -0.81683,0.58411 z"
             id="path916" />
        </g>
      </g>
      <rect
         style="opacity:0.997;fill:#ffffff;fill-opacity:1;stroke:#000000;stroke-width:0;stroke-linecap:round"
         id="rect1577"
         width="14.12686"
         height="0.9921875"
         x="92.745903"
         y="143.99487" />
      <rect
         style="opacity:0.997;fill:#ffffff;fill-opacity:1;stroke:#000000;stroke-width:0;stroke-linecap:round"
         id="rect1581"
         width="9.5443659"
         height="0.99218768"
         x="108.62622"
         y="142.87216"
         transform="matrix(0.99995099,0.00990052,0,1,0,0)" />
    </g>
  </g>
</svg>
